<?xml version="1.0" encoding="utf-8"?>
<!-- Generator: Adobe Illustrator 25.4.1, SVG Export Plug-In . SVG Version: 6.00 Build 0)  -->
<svg version="1.1" id="Capa_1" xmlns="http://www.w3.org/2000/svg" xmlns:xlink="http://www.w3.org/1999/xlink" x="0px" y="0px"
	 viewBox="0 0 16 16" style="enable-background:new 0 0 16 16;" xml:space="preserve">
<style type="text/css">
	.st0{fill:#FFFFFF;}
</style>
<path class="st0" d="M6.4,1.2C6.7,0.6,7.2,0,8,0s1.3,0.6,1.6,1.2C9.9,1.7,10,2.4,10,3v3.7l5.2,2.6C15.7,9.5,16,10,16,10.6V12
	c0,0.3-0.2,0.5-0.5,0.5c0,0-0.1,0-0.1,0l-5.5-0.9l-0.4,2.3l1.3,1.3c0.2,0.2,0.2,0.5,0,0.7c-0.1,0.1-0.2,0.1-0.4,0.1h-5
	C5.2,16,5,15.8,5,15.5c0-0.1,0.1-0.3,0.1-0.4l1.3-1.3l-0.4-2.3l-5.5,0.9c-0.3,0-0.5-0.1-0.6-0.4c0,0,0-0.1,0-0.1v-1.4
	C0,10,0.3,9.5,0.8,9.3L6,6.7V3C6,2.4,6.1,1.7,6.4,1.2z"/>
</svg>
